0
SECTION
2
HEADER
9
$ACADVER
1
AC1009
0
ENDSEC
0
SECTION
2
TABLES
0
TABLE
2
LTYPE
70
1
0
LTYPE
2
CONTINUOUS
70
0
3
Solid line
72
65
73
0
40
0.0
0
ENDTAB
0
TABLE
2
LAYER
70
1
0
LAYER
2
0
70
0
62
7
6
CONTINUOUS
0
ENDTAB
0
TABLE
2
STYLE
70
1
0
STYLE
2
STANDARD
70
0
40
0.0
41
1.0
50
0.0
71
0
42
2.5
3
txt
4

0
ENDTAB
0
ENDSEC
0
SECTION
2
BLOCKS
0
BLOCK
8
0
2
Block_Test_Marking
70
2
10
0.0
20
0.0
30
0.0
3
Block_Test_Marking
1

0
TEXT
8
0
10
0.0
20
31.5
30
0.0
40
2.5
1
MARKING
0
ATTDEF
8
0
10
0.0
20
28.0
30
0.0
40
2.5
1

3
ENDPOINT_ID
2
ENDPOINT_ID
70
0
0
ATTDEF
8
0
10
0.0
20
24.5
30
0.0
40
2.5
1
-
3
PROJECT_ID
2
PROJECT_ID
70
0
0
ATTDEF
8
0
10
0.0
20
21.0
30
0.0
40
2.5
1
-
3
CABINET_ID
2
CABINET_ID
70
0
0
ATTDEF
8
0
10
0.0
20
17.5
30
0.0
40
2.5
1

3
REF_ID
2
REF_ID
70
0
0
ATTDEF
8
0
10
0.0
20
14.0
30
0.0
40
2.5
1
-
3
MARK_1
2
MARK_1
70
0
0
ATTDEF
8
0
10
0.0
20
10.5
30
0.0
40
2.5
1
-
3
MARK_2
2
MARK_2
70
0
0
ATTDEF
8
0
10
0.0
20
7.0
30
0.0
40
2.5
1
-
3
WIRE_TYPE
2
WIRE_TYPE
70
0
0
ATTDEF
8
0
10
0.0
20
3.5
30
0.0
40
2.5
1
-
3
WIRE_COLOR
2
WIRE_COLOR
70
0
0
ATTDEF
8
0
10
0.0
20
0.0
30
0.0
40
2.5
1
NEW
3
SYNC_STATUS
2
SYNC_STATUS
70
0
0
ENDBLK
0
ENDSEC
0
SECTION
2
ENTITIES
0
INSERT
8
0
2
Block_Test_Marking
10
0.0
20
0.0
30
0.0
0
ENDSEC
0
EOF
